<?xml version="1.0" encoding="utf-8"?>
<!-- Generator: Adobe Illustrator 19.2.1, SVG Export Plug-In . SVG Version: 6.00 Build 0)  -->
<svg version="1.1" id="Layer_1" xmlns="http://www.w3.org/2000/svg" xmlns:xlink="http://www.w3.org/1999/xlink" x="0px" y="0px"
	 viewBox="0 0 1275 100" style="enable-background:new 0 0 1275 100;" xml:space="preserve">
<style type="text/css">
	.st0{opacity:0.7;}
</style>
<path class="st0" d="M113.5,1.5l-23.4,97H77.9L56.8,23.2L37.1,98.5H24.6L0,1.5h12.6L32,80.1L52.6,1.5h9.9l22.2,78.6l18.1-78.6H113.5
	z"/>
<path class="st0" d="M152.6,98.5h-12.2v-97h34.4c10.8,0,18.7,2.9,23.8,8.8c5.1,5.9,7.7,12.5,7.7,20c0,8.3-2.8,15.2-8.4,20.7
	c-5.6,5.4-12.9,8.2-21.9,8.2h-23.5V98.5z M152.6,49h22.3c5.7,0,10.4-1.7,13.9-5.2c3.5-3.4,5.3-8,5.3-13.6c0-4.8-1.6-9.1-4.7-12.9
	c-3.1-3.8-7.7-5.7-13.6-5.7h-23.2V49z"/>
<path d="M288.1,61.5l27.2,1.6c-1.3,11.9-5.7,21-13.2,27.4c-7.5,6.3-16.7,9.5-27.7,9.5c-13.2,0-23.8-4.4-31.9-13.1
	c-8.1-8.7-12.2-20.8-12.2-36.1c0-15.2,3.8-27.5,11.5-36.8c7.7-9.3,18.4-14,32.1-14c12.8,0,22.7,3.6,29.6,10.7
	c6.9,7.1,10.8,16.5,11.7,28.3l-27.8,1.5c0-6.5-1.2-11.2-3.7-14.1c-2.5-2.9-5.4-4.3-8.8-4.3c-9.4,0-14.1,9.4-14.1,28.3
	c0,10.6,1.2,17.7,3.7,21.5c2.4,3.8,5.9,5.7,10.3,5.7C282.7,77.5,287.1,72.2,288.1,61.5z"/>
<path d="M397.3,98.5l-5.5-19.1h-26L360,98.5h-24.2l29.9-97h31.5l30.4,97H397.3z M370.9,58.2h15.7l-7.8-28.1L370.9,58.2z"/>
<path d="M558.6,1.5v97h-27.6V29.1L513,98.5h-18.9l-18.7-69.4v69.4h-22.3v-97H492L506.1,53l13.4-51.5H558.6z"/>
<path d="M619.8,63.3v35.3h-30.2v-97H631c10.3,0,18.2,1.2,23.6,3.6c5.4,2.4,9.6,6,12.8,10.9c3.2,4.9,4.7,10.4,4.7,16.4
	c0,9.2-3.2,16.7-9.7,22.4c-6.4,5.7-15,8.5-25.8,8.5H619.8z M619.4,42.4h10c8.8,0,13.1-3.2,13.1-9.7c0-6.1-4.1-9.1-12.2-9.1h-10.9
	V42.4z"/>
<path d="M777.8,1.5v64.3c0,12.2-3.6,20.9-10.8,26.3c-7.2,5.3-16.6,8-28.3,8c-12.2,0-22-2.6-29.5-7.7c-7.4-5.1-11.1-13.5-11.1-25V1.5
	h30.3v62.3c0,4.6,1,8,2.9,10.2c2,2.1,5.1,3.2,9.4,3.2c3.6,0,6.5-0.8,8.8-2.3c2.3-1.5,3.7-3.3,4.1-5.2c0.4-1.9,0.7-5.7,0.7-11.4V1.5
	H777.8z"/>
<path d="M805.9,70.4l27.6-5c2.3,7.8,8.3,11.7,17.9,11.7c7.5,0,11.2-2,11.2-6c0-2.1-0.9-3.7-2.6-4.9c-1.7-1.2-4.8-2.2-9.3-3.1
	c-17-3.3-27.9-7.5-32.8-12.8c-4.8-5.3-7.2-11.4-7.2-18.6c0-9.1,3.5-16.8,10.4-22.8c6.9-6.1,16.9-9.1,30-9.1
	C871,0,884,7.9,890.4,23.8l-24.7,7.5c-2.6-6.5-7.7-9.7-15.6-9.7c-6.5,0-9.7,2-9.7,6c0,1.8,0.7,3.2,2.2,4.2c1.5,1,4.3,1.9,8.5,2.8
	c11.6,2.5,19.9,4.6,24.7,6.5c4.9,1.9,9,5.1,12.2,9.7c3.3,4.6,4.9,10,4.9,16.2c0,9.8-4,17.8-11.9,23.9c-8,6.1-18.4,9.1-31.3,9.1
	C826.1,100,811.5,90.1,805.9,70.4z"/>
<path d="M939.8,72.6v25.9h-27V72.6H939.8z"/>
<path d="M1003.3,100c-13.6,0-24.8-4.5-33.4-13.6c-8.6-9-12.9-21.2-12.9-36.3c0-14.5,4.1-26.5,12.3-35.9C977.6,4.7,989,0,1003.6,0
	c13.5,0,24.5,4.5,33,13.4c8.5,8.9,12.8,20.8,12.8,35.7c0,15.4-4.3,27.7-12.9,37C1027.9,95.4,1016.8,100,1003.3,100z M1003.1,78
	c5,0,8.6-2.2,10.8-6.6c2.2-4.4,3.3-12.4,3.3-24.1c0-16.9-4.5-25.3-13.6-25.3c-9.8,0-14.6,9.6-14.6,28.9
	C989.1,68.9,993.7,78,1003.1,78z"/>
<path d="M1162.2,98.5h-33L1115,61.4h-9.4v37.1h-29.8v-97h50.7c11.2,0,19.9,2.6,26,7.9c6.2,5.2,9.3,12.1,9.3,20.7
	c0,5.6-1.1,10.5-3.4,14.8c-2.3,4.3-6.9,8.1-13.8,11.3L1162.2,98.5z M1105.7,40.7h12.7c3.7,0,6.8-0.8,9-2.3c2.3-1.6,3.4-3.9,3.4-6.9
	c0-6.2-3.8-9.3-11.4-9.3h-13.7V40.7z"/>
<path d="M1275,44.1v54.4h-14.6c-1.2-4-2.5-7.4-3.9-10.2c-6,7.8-14.9,11.7-26.7,11.7c-12.5,0-22.8-4.4-30.8-13.1
	c-8.1-8.7-12.1-20.6-12.1-35.5c0-14.5,3.9-26.7,11.7-36.6C1206.4,4.9,1218,0,1233.4,0c11.6,0,20.9,2.9,27.9,8.8
	c7.1,5.9,11.6,14.2,13.7,25l-28.9,2.8c-1.4-10.1-5.9-15.1-13.3-15.1c-9.8,0-14.6,9.3-14.6,27.9c0,11.2,1.6,18.6,4.7,22.2
	c3.1,3.6,6.9,5.4,11.4,5.4c3.6,0,6.7-1.1,9.2-3.3c2.5-2.2,3.8-5.2,3.9-9h-16.1V44.1H1275z"/>
</svg>
